<svg width="134" height="28" viewBox="0 0 134 28" fill="none" xmlns="http://www.w3.org/2000/svg">
<rect width="28" height="28" rx="14" fill="url(#paint0_linear_1019_390)"/>
<path d="M9.22428 22.12L8.95996 19.5944L11.2981 13.0319C11.5692 13.3355 11.881 13.5771 12.2334 13.7565C12.5858 13.9359 12.9382 14.0463 13.2907 14.0877L11.0542 20.3603L9.22428 22.12ZM18.4956 22.12L16.6658 20.3603L14.4293 14.0877C14.7817 14.0463 15.1341 13.9359 15.4865 13.7565C15.8389 13.5771 16.1507 13.3355 16.4218 13.0319L18.76 19.5944L18.4956 22.12ZM13.86 13.301C13.0602 13.301 12.3757 13.0112 11.8064 12.4316C11.2371 11.8519 10.9525 11.1549 10.9525 10.3407C10.9525 9.67822 11.1287 9.10547 11.4811 8.62243C11.8335 8.13939 12.2537 7.80126 12.7417 7.60805V5.59998H14.9782V7.60805C15.4662 7.80126 15.8864 8.13939 16.2388 8.62243C16.5912 9.10547 16.7674 9.67822 16.7674 10.3407C16.7674 11.1549 16.4828 11.8519 15.9135 12.4316C15.3442 13.0112 14.6597 13.301 13.86 13.301ZM13.86 11.0031C14.0362 11.0031 14.1887 10.9376 14.3174 10.8065C14.4462 10.6754 14.5106 10.5201 14.5106 10.3407C14.5106 10.1613 14.4462 10.006 14.3174 9.87489C14.1887 9.74378 14.0362 9.67822 13.86 9.67822C13.6838 9.67822 13.5313 9.74378 13.4025 9.87489C13.2737 10.006 13.2093 10.1613 13.2093 10.3407C13.2093 10.5201 13.2737 10.6754 13.4025 10.8065C13.5313 10.9376 13.6838 11.0031 13.86 11.0031Z" fill="white"/>
<path d="M37 14.0642C37 13.0734 37.2018 12.1988 37.6054 11.4404C38.009 10.682 38.5777 10.0948 39.3115 9.6789C40.0454 9.25076 40.8954 9.0367 41.8616 9.0367C42.8033 9.0367 43.635 9.24465 44.3566 9.66055C45.0782 10.0765 45.6469 10.7309 46.0627 11.6239L43.5677 12.8532C43.3843 12.4373 43.1519 12.1376 42.8706 11.9541C42.5893 11.7706 42.253 11.6789 41.8616 11.6789C41.4702 11.6789 41.1339 11.7768 40.8526 11.9725C40.5713 12.1682 40.3511 12.4434 40.1921 12.7982C40.0454 13.1529 39.972 13.5749 39.972 14.0642C39.972 14.8104 40.1432 15.3976 40.4857 15.8257C40.8281 16.2538 41.2868 16.4679 41.8616 16.4679C42.2652 16.4679 42.626 16.37 42.944 16.1743C43.262 15.9786 43.531 15.6789 43.7512 15.2752L46.2278 16.4862C45.812 17.3425 45.2188 17.9969 44.4483 18.4495C43.69 18.8899 42.8278 19.1101 41.8616 19.1101C40.8954 19.1101 40.0454 18.9021 39.3115 18.4862C38.5777 18.0581 38.009 17.4648 37.6054 16.7064C37.2018 15.948 37 15.0673 37 14.0642Z" fill="white"/>
<path d="M47.1044 14.0642C47.1044 13.0734 47.3062 12.1988 47.7098 11.4404C48.1134 10.682 48.6821 10.0948 49.4159 9.6789C50.1498 9.25076 50.9998 9.0367 51.966 9.0367C52.9444 9.0367 53.7944 9.25076 54.516 9.6789C55.2498 10.0948 55.8186 10.682 56.2222 11.4404C56.638 12.1988 56.8459 13.0734 56.8459 14.0642C56.8459 15.0673 56.638 15.948 56.2222 16.7064C55.8186 17.4648 55.2498 18.0581 54.516 18.4862C53.7944 18.9021 52.9444 19.1101 51.966 19.1101C50.9998 19.1101 50.1498 18.9021 49.4159 18.4862C48.6821 18.0581 48.1134 17.4648 47.7098 16.7064C47.3062 15.948 47.1044 15.0673 47.1044 14.0642ZM50.0764 14.0642C50.0764 14.5535 50.1498 14.9817 50.2965 15.3486C50.4555 15.7034 50.6757 15.9786 50.957 16.1743C51.2383 16.37 51.5746 16.4679 51.966 16.4679C52.3696 16.4679 52.7059 16.37 52.975 16.1743C53.2563 15.9786 53.4764 15.7034 53.6354 15.3486C53.7944 14.9817 53.8739 14.5535 53.8739 14.0642C53.8739 13.5749 53.7944 13.1529 53.6354 12.7982C53.4764 12.4434 53.2563 12.1682 52.975 11.9725C52.7059 11.7768 52.3696 11.6789 51.966 11.6789C51.5746 11.6789 51.2383 11.7768 50.957 11.9725C50.6757 12.1682 50.4555 12.4434 50.2965 12.7982C50.1498 13.1529 50.0764 13.5749 50.0764 14.0642Z" fill="white"/>
<path d="M58.3657 9.29358H61.246V11.8257H60.6956C60.8302 11.2263 61.0564 10.7248 61.3744 10.3211C61.6924 9.9052 62.0654 9.58716 62.4935 9.36697C62.9338 9.14679 63.3863 9.0367 63.8511 9.0367C64.6338 9.0367 65.282 9.2263 65.7957 9.6055C66.3094 9.98471 66.6641 10.5963 66.8597 11.4404H66.3828C66.6396 10.6086 67.0554 10.0031 67.6303 9.62385C68.2051 9.23242 68.8166 9.0367 69.4648 9.0367C70.5778 9.0367 71.4156 9.39755 71.9782 10.1193C72.5408 10.8287 72.8221 11.893 72.8221 13.3119V18.8532H69.8868V13.3303C69.8868 12.7676 69.7706 12.3517 69.5382 12.0826C69.318 11.8135 68.9817 11.6789 68.5292 11.6789C68.2479 11.6789 67.991 11.7584 67.7587 11.9174C67.5385 12.0642 67.3673 12.2783 67.245 12.5596C67.1227 12.8287 67.0615 13.1529 67.0615 13.5321V18.8532H64.1262V13.3303C64.1262 12.7676 64.0101 12.3517 63.7777 12.0826C63.5575 11.8135 63.2212 11.6789 62.7687 11.6789C62.4751 11.6789 62.2183 11.7584 61.9982 11.9174C61.778 12.0642 61.6068 12.2783 61.4845 12.5596C61.3622 12.841 61.301 13.1713 61.301 13.5505V18.8532H58.3657V9.29358Z" fill="white"/>
<path d="M74.7048 9.29358H77.585V11.8257H77.0347C77.1692 11.2263 77.3955 10.7248 77.7134 10.3211C78.0314 9.9052 78.4045 9.58716 78.8325 9.36697C79.2728 9.14679 79.7253 9.0367 80.1901 9.0367C80.9728 9.0367 81.6211 9.2263 82.1347 9.6055C82.6484 9.98471 83.0031 10.5963 83.1988 11.4404H82.7218C82.9786 10.6086 83.3945 10.0031 83.9693 9.62385C84.5441 9.23242 85.1556 9.0367 85.8038 9.0367C86.9168 9.0367 87.7546 9.39755 88.3172 10.1193C88.8798 10.8287 89.1611 11.893 89.1611 13.3119V18.8532H86.2258V13.3303C86.2258 12.7676 86.1096 12.3517 85.8772 12.0826C85.6571 11.8135 85.3208 11.6789 84.8682 11.6789C84.5869 11.6789 84.3301 11.7584 84.0977 11.9174C83.8776 12.0642 83.7063 12.2783 83.584 12.5596C83.4617 12.8287 83.4006 13.1529 83.4006 13.5321V18.8532H80.4653V13.3303C80.4653 12.7676 80.3491 12.3517 80.1167 12.0826C79.8966 11.8135 79.5602 11.6789 79.1077 11.6789C78.8142 11.6789 78.5573 11.7584 78.3372 11.9174C78.117 12.0642 77.9458 12.2783 77.8235 12.5596C77.7012 12.841 77.6401 13.1713 77.6401 13.5505V18.8532H74.7048V9.29358Z" fill="white"/>
<path d="M90.7913 14.945V9.29358H93.7266V14.6881C93.7266 15.2997 93.8428 15.7523 94.0751 16.0459C94.3075 16.3272 94.6683 16.4679 95.1575 16.4679C95.4755 16.4679 95.7507 16.3884 95.9831 16.2294C96.2155 16.0703 96.3928 15.8379 96.5151 15.5321C96.6374 15.2263 96.6985 14.8716 96.6985 14.4679V9.29358H99.6338V18.8532H96.7352V16.3211H97.304C97.1083 17.1529 96.7108 17.8257 96.1115 18.3394C95.5122 18.8532 94.8212 19.1101 94.0384 19.1101C92.9622 19.1101 92.1488 18.7676 91.5985 18.0826C91.0603 17.3853 90.7913 16.3394 90.7913 14.945Z" fill="white"/>
<path d="M101.596 9.29358H104.476V11.8257H103.908C104.116 10.9817 104.519 10.3089 105.118 9.80734C105.73 9.29358 106.421 9.0367 107.192 9.0367C109.381 9.0367 110.475 10.4251 110.475 13.2018V18.8532H107.54V13.4587C107.54 12.8471 107.418 12.4006 107.173 12.1193C106.941 11.8257 106.58 11.6789 106.091 11.6789C105.761 11.6789 105.479 11.7584 105.247 11.9174C105.014 12.0765 104.837 12.3089 104.715 12.6147C104.593 12.9083 104.531 13.263 104.531 13.6789V18.8532H101.596V9.29358Z" fill="white"/>
<path d="M115.299 18.8532H112.363V9.29358H115.299V18.8532ZM112.217 6.61468C112.217 6.12538 112.363 5.73395 112.657 5.44037C112.963 5.14679 113.354 5 113.831 5C114.32 5 114.712 5.14679 115.005 5.44037C115.299 5.73395 115.445 6.12538 115.445 6.61468C115.445 7.09174 115.299 7.48318 115.005 7.78899C114.712 8.08257 114.32 8.22936 113.831 8.22936C113.354 8.22936 112.963 8.08257 112.657 7.78899C112.363 7.48318 112.217 7.09174 112.217 6.61468Z" fill="white"/>
<path d="M117.823 15.5688V7.27523L120.758 6.30275V15.1101C120.758 15.6116 120.856 15.9541 121.052 16.1376C121.248 16.3089 121.535 16.3945 121.914 16.3945C122.098 16.3945 122.281 16.3884 122.464 16.3761C122.648 16.3517 122.825 16.3211 122.997 16.2844V18.7982C122.74 18.8716 122.446 18.9266 122.116 18.9633C121.798 19.0122 121.498 19.0367 121.217 19.0367C120.569 19.0367 119.988 18.9327 119.474 18.7248C118.973 18.5168 118.569 18.1621 118.263 17.6606C117.97 17.159 117.823 16.4618 117.823 15.5688ZM116.484 9.29358H122.611V11.8807H116.484V9.29358Z" fill="white"/>
<path d="M124.515 20.2844C124.748 20.3211 124.956 20.3456 125.139 20.3578C125.335 20.37 125.5 20.3761 125.634 20.3761C125.977 20.3761 126.252 20.2905 126.46 20.1193C126.668 19.9602 126.857 19.6544 127.029 19.2018L127.707 17.4037L128.038 17.422L130.973 9.29358H134L129.872 19.7523C129.566 20.5107 129.255 21.1284 128.937 21.6055C128.631 22.0826 128.252 22.4312 127.799 22.6514C127.359 22.8838 126.79 23 126.093 23C125.873 23 125.622 22.9817 125.341 22.945C125.072 22.9205 124.797 22.8716 124.515 22.7982V20.2844ZM129.799 17.4404L127.964 19.8991L123.525 9.29358H126.735L129.799 17.4404Z" fill="white"/>
<defs>
<linearGradient id="paint0_linear_1019_390" x1="0" y1="28" x2="28" y2="0" gradientUnits="userSpaceOnUse">
<stop stop-color="#00A3FF"/>
<stop offset="1" stop-color="#004369"/>
</linearGradient>
</defs>
</svg>
