<svg width="300" height="48" viewBox="0 0 422 55" fill="none" xmlns="http://www.w3.org/2000/svg">
<path d="M3.43147 27.4873C3.54309 26.9532 4.06036 26.6113 4.58659 26.7243C5.11283 26.8376 5.44963 27.3627 5.33828 27.8969L1.92809 44.2154C1.81646 44.7496 1.29919 45.0914 0.772962 44.9784C0.246726 44.8651 -0.0900712 44.34 0.021273 43.8059L3.43147 27.4873ZM13.899 26.7311C14.4219 26.6025 14.9483 26.9286 15.075 27.4593L18.9724 43.7779C19.0991 44.3087 18.7779 44.843 18.255 44.9716C17.7321 45.1002 17.2057 44.7742 17.0789 44.2434L13.1815 27.9249C13.0549 27.3941 13.3761 26.8598 13.899 26.7311ZM14.1283 17.3076C14.1283 14.5765 11.9471 12.3625 9.25658 12.3625C6.56601 12.3625 4.38487 14.5765 4.38487 17.3076C4.38487 20.0386 6.56601 22.2526 9.25658 22.2526C11.9471 22.2526 14.1283 20.0386 14.1283 17.3076ZM8.28224 6.42852V0.989003C8.28224 0.442792 8.71847 0 9.25658 0C9.79469 0 10.2309 0.442792 10.2309 0.989003V6.42852C10.2309 6.97473 9.79469 7.41753 9.25658 7.41753C8.71847 7.41753 8.28224 6.97473 8.28224 6.42852ZM16.077 17.3076C16.077 21.131 13.0234 24.2306 9.25658 24.2306C5.48978 24.2306 2.43619 21.131 2.43619 17.3076C2.43619 13.4841 5.48978 10.3845 9.25658 10.3845C13.0234 10.3845 16.077 13.4841 16.077 17.3076Z" fill="#EFEFEF"/>
<path d="M56.8147 44.6758C53.106 44.6758 49.8347 43.7789 47.0011 41.9852C44.1674 40.1915 41.9588 37.6469 40.3753 34.3515C38.7918 31.0144 38 27.0516 38 22.463C38 17.8328 38.7918 13.8699 40.3753 10.5745C41.9588 7.23739 44.1674 4.69284 47.0011 2.94084C49.8347 1.14714 53.106 0.250285 56.8147 0.250285C59.7734 0.250285 62.4404 0.771711 64.8157 1.81456C67.191 2.85742 69.1912 4.40084 70.8164 6.44483C72.4416 8.4471 73.5875 10.9082 74.2543 13.8282L67.7535 15.5802C67.1284 12.4934 65.8575 10.1782 63.9406 8.63481C62.0653 7.09139 59.6276 6.31968 56.6272 6.31968C53.0851 6.31968 50.2306 7.7171 48.0637 10.5119C45.8968 13.2651 44.8133 17.2488 44.8133 22.463C44.8133 27.6356 45.8968 31.6193 48.0637 34.4141C50.2306 37.209 53.0851 38.6064 56.6272 38.6064C59.7109 38.6064 62.1904 37.8347 64.0656 36.2912C65.9408 34.7061 67.2535 32.3493 68.0036 29.2207L74.5043 30.9727C73.7542 33.9344 72.5458 36.4372 70.8789 38.4812C69.212 40.5252 67.191 42.0686 64.8157 43.1115C62.4404 44.1543 59.7734 44.6758 56.8147 44.6758Z" fill="white"/>
<path d="M94.4437 44.6758C91.485 44.6758 88.8597 43.9666 86.5678 42.5483C84.3175 41.1301 82.5464 39.1278 81.2546 36.5415C79.9628 33.9552 79.3169 30.931 79.3169 27.4687C79.3169 23.9647 79.9628 20.9405 81.2546 18.3959C82.5464 15.8096 84.3175 13.8074 86.5678 12.3891C88.8597 10.9708 91.485 10.2617 94.4437 10.2617C97.444 10.2617 100.069 10.9708 102.32 12.3891C104.612 13.8074 106.403 15.8096 107.695 18.3959C108.987 20.9405 109.633 23.9647 109.633 27.4687C109.633 30.931 108.987 33.9552 107.695 36.5415C106.403 39.1278 104.612 41.1301 102.32 42.5483C100.069 43.9666 97.444 44.6758 94.4437 44.6758ZM94.4437 39.0444C97.069 39.0444 99.1734 38.1267 100.757 36.2912C102.34 34.4141 103.132 31.4733 103.132 27.4687C103.132 23.4642 102.34 20.5442 100.757 18.7088C99.1734 16.8316 97.069 15.8931 94.4437 15.8931C91.86 15.8931 89.7765 16.8316 88.1929 18.7088C86.6094 20.5442 85.8177 23.4642 85.8177 27.4687C85.8177 31.4733 86.6094 34.4141 88.1929 36.2912C89.7765 38.1267 91.86 39.0444 94.4437 39.0444Z" fill="white"/>
<path d="M155.298 44.0501V23.4642C155.298 20.9196 154.631 19.0008 153.297 17.7076C152.006 16.4145 150.443 15.7679 148.609 15.7679C146.776 15.7679 145.192 16.4145 143.859 17.7076C142.567 19.0008 141.921 20.9196 141.921 23.4642H139.858C139.858 20.7528 140.337 18.4168 141.296 16.4562C142.296 14.4539 143.63 12.9314 145.296 11.8885C147.005 10.8039 148.901 10.2617 150.985 10.2617C154.068 10.2617 156.589 11.3254 158.548 13.4528C160.548 15.5385 161.548 18.3959 161.548 22.025V44.0501H155.298ZM116.043 44.0501V10.8874H122.294V44.0501H116.043ZM135.67 44.0501V23.4642C135.67 20.9196 135.004 19.0008 133.67 17.7076C132.378 16.4145 130.815 15.7679 128.982 15.7679C127.148 15.7679 125.565 16.4145 124.231 17.7076C122.94 19.0008 122.294 20.9196 122.294 23.4642H120.231C120.231 20.7528 120.71 18.4168 121.669 16.4562C122.669 14.4539 124.002 12.9314 125.669 11.8885C127.378 10.8039 129.274 10.2617 131.357 10.2617C134.441 10.2617 136.962 11.3254 138.921 13.4528C140.921 15.5385 141.921 18.3959 141.921 22.025V44.0501H135.67Z" fill="white"/>
<path d="M185.826 44.6758C182.326 44.6758 179.513 43.4243 177.388 40.9215C175.262 38.3769 174.2 34.8104 174.2 30.2218V24.7156C174.2 20.127 175.262 16.5813 177.388 14.0785C179.513 11.5339 182.326 10.2617 185.826 10.2617C188.41 10.2617 190.681 10.9499 192.639 12.3265C194.64 13.7031 196.202 15.6845 197.327 18.2708C198.453 20.8153 199.015 23.8813 199.015 27.4687C199.015 31.0561 198.453 34.143 197.327 36.7292C196.202 39.2738 194.64 41.2344 192.639 42.6109C190.681 43.9875 188.41 44.6758 185.826 44.6758ZM169.699 55V10.8874H175.95V18.5836L175.012 27.4687L175.95 36.4164V55H169.699ZM184.076 39.1695C186.576 39.1695 188.597 38.2518 190.139 36.4164C191.723 34.5392 192.514 31.5567 192.514 27.4687C192.514 23.3807 191.723 20.419 190.139 18.5836C188.597 16.7065 186.576 15.7679 184.076 15.7679C181.576 15.7679 179.534 16.7065 177.95 18.5836C176.408 20.419 175.637 23.3807 175.637 27.4687C175.637 31.5567 176.408 34.5392 177.95 36.4164C179.534 38.2518 181.576 39.1695 184.076 39.1695Z" fill="white"/>
<path d="M225.472 44.0501C225.222 42.9655 225.014 41.8601 224.847 40.7338C224.722 39.6075 224.66 38.5021 224.66 37.4175V23.4016C224.66 20.6902 223.951 18.7505 222.535 17.5825C221.159 16.3728 219.492 15.7679 217.534 15.7679C215.742 15.7679 214.221 16.2685 212.971 17.2696C211.762 18.229 210.887 19.689 210.346 21.6496L204.47 19.7099C205.387 16.6648 207.033 14.3288 209.408 12.7019C211.825 11.0751 214.659 10.2617 217.909 10.2617C222.034 10.2617 225.222 11.3671 227.473 13.5779C229.765 15.7888 230.911 18.813 230.911 22.6507V36.6667C230.911 39.1278 231.223 41.5889 231.848 44.0501H225.472ZM213.346 44.6758C210.471 44.6758 208.158 43.8415 206.408 42.1729C204.699 40.5044 203.845 38.3978 203.845 35.8532C203.845 33.3504 204.678 31.2021 206.345 29.4084C208.054 27.573 210.679 26.3424 214.221 25.7167L225.91 23.7144V28.5324L216.284 30.4721C214.075 30.8893 212.492 31.5358 211.533 32.4118C210.575 33.2461 210.096 34.2472 210.096 35.4152C210.096 36.3747 210.491 37.2715 211.283 38.1058C212.075 38.8984 213.346 39.2947 215.096 39.2947C216.638 39.2947 218.138 38.9401 219.597 38.2309C221.055 37.4801 222.264 36.4372 223.222 35.1024C224.181 33.7258 224.66 32.099 224.66 30.2218H226.723C226.723 33.1835 226.097 35.749 224.847 37.9181C223.639 40.0872 222.014 41.7558 219.972 42.9238C217.971 44.0918 215.763 44.6758 213.346 44.6758Z" fill="white"/>
<path d="M250.482 44.6758C246.732 44.6758 243.731 43.9249 241.481 42.4232C239.231 40.8798 237.647 38.6272 236.731 35.6655L242.606 33.7884C243.315 35.8741 244.356 37.3758 245.732 38.2935C247.107 39.1695 248.836 39.6075 250.92 39.6075C252.795 39.6075 254.295 39.2529 255.42 38.5438C256.587 37.7929 257.17 36.7501 257.17 35.4152C257.17 34.1221 256.712 33.121 255.795 32.4118C254.879 31.661 253.691 31.0561 252.232 30.5973C250.774 30.0967 249.211 29.617 247.544 29.1581C245.919 28.6576 244.377 28.0527 242.919 27.3436C241.46 26.6344 240.273 25.675 239.356 24.4653C238.439 23.2139 237.981 21.587 237.981 19.5848C237.981 16.9985 239.043 14.8085 241.169 13.0148C243.294 11.1794 246.336 10.2617 250.295 10.2617C253.712 10.2617 256.462 11.0125 258.546 12.5142C260.629 14.0159 262.129 16.2059 263.046 19.0842L257.358 21.0239C256.608 18.9799 255.608 17.5199 254.358 16.6439C253.149 15.7679 251.628 15.3299 249.795 15.3299C248.003 15.3299 246.607 15.6845 245.607 16.3936C244.648 17.0611 244.169 17.937 244.169 19.0216C244.169 20.1479 244.627 21.0447 245.544 21.7122C246.461 22.3379 247.648 22.8802 249.107 23.339C250.566 23.7562 252.107 24.215 253.733 24.7156C255.399 25.2162 256.962 25.8627 258.421 26.6553C259.879 27.4061 261.067 28.449 261.984 29.7838C262.9 31.1187 263.359 32.8498 263.359 34.9772C263.359 37.6887 262.234 39.9829 259.983 41.8601C257.775 43.7372 254.608 44.6758 250.482 44.6758Z" fill="white"/>
<path d="M281.248 44.6758C277.497 44.6758 274.497 43.9249 272.246 42.4232C269.996 40.8798 268.413 38.6272 267.496 35.6655L273.372 33.7884C274.08 35.8741 275.122 37.3758 276.497 38.2935C277.872 39.1695 279.601 39.6075 281.685 39.6075C283.56 39.6075 285.06 39.2529 286.186 38.5438C287.352 37.7929 287.936 36.7501 287.936 35.4152C287.936 34.1221 287.477 33.121 286.561 32.4118C285.644 31.661 284.456 31.0561 282.998 30.5973C281.539 30.0967 279.977 29.617 278.31 29.1581C276.684 28.6576 275.143 28.0527 273.684 27.3436C272.226 26.6344 271.038 25.675 270.121 24.4653C269.204 23.2139 268.746 21.587 268.746 19.5848C268.746 16.9985 269.809 14.8085 271.934 13.0148C274.059 11.1794 277.101 10.2617 281.06 10.2617C284.477 10.2617 287.227 11.0125 289.311 12.5142C291.395 14.0159 292.895 16.2059 293.812 19.0842L288.123 21.0239C287.373 18.9799 286.373 17.5199 285.123 16.6439C283.914 15.7679 282.393 15.3299 280.56 15.3299C278.768 15.3299 277.372 15.6845 276.372 16.3936C275.413 17.0611 274.934 17.937 274.934 19.0216C274.934 20.1479 275.393 21.0447 276.309 21.7122C277.226 22.3379 278.414 22.8802 279.872 23.339C281.331 23.7562 282.873 24.215 284.498 24.7156C286.165 25.2162 287.727 25.8627 289.186 26.6553C290.644 27.4061 291.832 28.449 292.749 29.7838C293.666 31.1187 294.124 32.8498 294.124 34.9772C294.124 37.6887 292.999 39.9829 290.749 41.8601C288.54 43.7372 285.373 44.6758 281.248 44.6758Z" fill="white"/>
<path d="M318.764 44.9261C314.805 44.9261 311.325 44.0083 308.325 42.1729C305.325 40.2958 302.97 37.6678 301.262 34.289C299.595 30.9101 298.761 26.9681 298.761 22.463C298.761 17.9162 299.595 13.9742 301.262 10.6371C302.97 7.25825 305.325 4.65112 308.325 2.8157C311.325 0.938567 314.784 0 318.701 0C321.952 0 324.869 0.604855 327.452 1.81456C330.036 3.02427 332.203 4.73455 333.953 6.94539C335.703 9.15624 336.891 11.8051 337.516 14.8919L327.89 17.5199C327.473 14.8919 326.452 12.8479 324.827 11.3879C323.243 9.88624 321.201 9.13538 318.701 9.13538C315.659 9.13538 313.221 10.3242 311.388 12.7019C309.554 15.0379 308.637 18.2916 308.637 22.463C308.637 26.5927 309.554 29.8464 311.388 32.2241C313.221 34.6018 315.68 35.7907 318.764 35.7907C321.347 35.7907 323.431 35.0398 325.014 33.5381C326.64 32.0364 327.661 29.9507 328.077 27.281L337.641 29.909C337.016 32.9958 335.828 35.6655 334.078 37.9181C332.369 40.1707 330.203 41.9018 327.577 43.1115C324.994 44.3212 322.056 44.9261 318.764 44.9261Z" fill="white"/>
<path d="M370.569 44.0501L357.442 0.875995H367.131L380.945 44.0501H370.569ZM338.752 44.0501L352.566 0.875995H361.693L348.941 44.0501H338.752ZM348.316 34.1638V25.5916H371.319V34.1638H348.316Z" fill="white"/>
<path d="M389.059 44.0501V34.9772H401.248C404.831 34.9772 407.54 33.8718 409.374 31.661C411.207 29.4084 412.124 26.3424 412.124 22.463C412.124 18.5419 411.207 15.4759 409.374 13.2651C407.54 11.0542 404.831 9.94881 401.248 9.94881H389.059V0.875995H401.873C406.165 0.875995 409.811 1.77285 412.811 3.56656C415.812 5.31855 418.083 7.82139 419.625 11.0751C421.208 14.2871 422 18.083 422 22.463C422 26.843 421.208 30.6598 419.625 33.9135C418.083 37.1255 415.812 39.6284 412.811 41.4221C409.811 43.1741 406.165 44.0501 401.873 44.0501H389.059ZM384.808 44.0501V0.875995H394.497V44.0501H384.808Z" fill="white"/>
</svg>
